PathFileType	4	(X/Y/Z)	/Users/itak/Documents/Research/Walk-IL/dataset/trc/00315_00010.trc
DataRate	CameraRate	NumFrames	NumMarkers	Units	OrigDataRate	OrigDataStartFrame	OrigNumFrames
100.000000	100.000000	4	53	mm	100.000000	402	537
Frame#	Time	RPSI			LPSI			L3			STRN			T10			C7			CLAV			RBAK			LBAK			LSHO			LUPA			LAEL			LAOL			LWTS			LWPS			LFRA			LIFD			LHPS			LHTS			RSHO			RUPA			RAEL			RAOL			RWTS			RWPS			RFRA			RIFD			RHTS			RHPS			RBHD			LFHD			RFHD			LBHD			LHIP			RHIP			RASI			LASI			LKNE			LTHI			LANK			LTIP			LTOE			LMT1			LMT5			LHEE			RKNE			RTHI			RANK			RTIP			RTOE			RMT1			RMT5			RHEE			
		X1	Y1	Z1	X2	Y2	Z2	X3	Y3	Z3	X4	Y4	Z4	X5	Y5	Z5	X6	Y6	Z6	X7	Y7	Z7	X8	Y8	Z8	X9	Y9	Z9	X10	Y10	Z10	X11	Y11	Z11	X12	Y12	Z12	X13	Y13	Z13	X14	Y14	Z14	X15	Y15	Z15	X16	Y16	Z16	X17	Y17	Z17	X18	Y18	Z18	X19	Y19	Z19	X20	Y20	Z20	X21	Y21	Z21	X22	Y22	Z22	X23	Y23	Z23	X24	Y24	Z24	X25	Y25	Z25	X26	Y26	Z26	X27	Y27	Z27	X28	Y28	Z28	X29	Y29	Z29	X30	Y30	Z30	X31	Y31	Z31	X32	Y32	Z32	X33	Y33	Z33	X34	Y34	Z34	X35	Y35	Z35	X36	Y36	Z36	X37	Y37	Z37	X38	Y38	Z38	X39	Y39	Z39	X40	Y40	Z40	X41	Y41	Z41	X42	Y42	Z42	X43	Y43	Z43	X44	Y44	Z44	X45	Y45	Z45	X46	Y46	Z46	X47	Y47	Z47	X48	Y48	Z48	X49	Y49	Z49	X50	Y50	Z50	X51	Y51	Z51	X52	Y52	Z52	X53	Y53	Z53	

403	4.02	379.8569946289062	981.38525390625	618.419677734375	553.1600341796875	988.3374633789062	645.3091430664062	468.2236328125	1061.736450195312	645.7822265625	437.7752075195312	1251.28564453125	890.39306640625	477.7542114257812	1173.958862304688	630.0449829101562	501.1231994628906	1421.079467773438	666.0777587890625	459.8105773925781	1348.110473632812	825.5345458984375	426.2136840820312	1284.948364257812	609.7837524414062	604.1434936523438	1375.2890625	675.3153076171875	635.307373046875	1388.670654296875	772.5116577148438	709.8849487304688	1270.25537109375	781.7655029296875	726.7444458007812	1078.802001953125	837.5828247070312	673.27099609375	1042.84912109375	777.6444091796875	691.0809936523438	919.6679077148438	1001.446472167969	750.4224243164062	890.5642700195312	972.6099853515625	740.6868286132812	989.8815307617188	887.16162109375	702.9246215820312	763.9650268554688	1099.8837890625	750.814453125	817.153564453125	1021.047119140625	715.5050048828125	847.2197875976562	1067.957397460938	331.4832153320312	1411.774291992188	702.8139038085938	263.7052001953125	1360.16796875	682.7718505859375	199.9794464111328	1103.378173828125	639.0967407226562	293.2287902832031	1084.344116210938	643.3331298828125	174.8526611328125	880.8916625976562	747.5842895507812	130.2297668457031	881.3063354492188	674.6935424804688	170.3775329589844	1038.460571289062	652.0479125976562	143.1655883789062	695.793701171875	753.8215942382812	129.3660125732422	769.8207397460938	763.9605102539062	108.1115036010742	773.6248779296875	696.42529296875	436.0285034179688	1569.2958984375	648.7325439453125	525.2135009765625	1642.644409179688	828.7359008789062	433.817138671875	1640.296508789062	809.7266235351562	579.3798217773438	1563.34814453125	680.707275390625	641.5038452148438	951.20068359375	730.0364379882812	252.0377044677734	944.7557373046875	713.0078735351562	320.7533264160156	952.3134765625	834.23876953125	571.8972778320312	960.6840209960938	857.585693359375	587.049560546875	487.8915100097656	834.4232788085938	614.3125610351562	629.4481201171875	819.6292114257812	564.8438110351562	48.61507034301758	747.7023315429688	583.4646606445312	256.2939758300781	793.3786010742188	466.5392150878906	34.11869812011719	943.2496948242188	441.9598999023438	28.46370506286621	863.1795043945312	553.3008422851562	40.2790412902832	869.8199462890625	514.2581176757812	46.98072814941406	692.1218872070312	265.7610168457031	488.9834899902344	869.1412353515625	256.647705078125	743.1573486328125	812.2990112304688	320.1782836914062	106.5734786987305	630.6726684570312	284.0326843261719	366.3186340332031	840.69580078125	371.6015625	63.7921142578125	814.8214721679688	411.8419494628906	73.43009185791016	760.072509765625	299.1066284179688	60.93040084838867	724.4537353515625	368.7689819335938	126.5666351318359	581.587158203125	
404	4.03	379.3692932128906	981.59130859375	621.576171875	552.7967529296875	988.470703125	647.7384643554688	468.3147888183594	1062.220458984375	648.422119140625	437.6437072753906	1251.403930664062	893.558837890625	478.2867126464844	1174.307983398438	633.2676391601562	501.3587646484375	1421.425415039062	669.5408935546875	459.4801940917969	1348.078979492188	828.357421875	426.7914123535156	1285.247192382812	612.8583374023438	604.4095458984375	1375.746337890625	679.0014038085938	635.224609375	1389.117797851562	776.2733764648438	709.8073120117188	1270.712036132812	786.0839233398438	726.3695068359375	1079.74755859375	843.1485595703125	673.2009887695312	1043.206665039062	783.3837890625	690.762451171875	923.0875244140625	1008.983337402344	750.0436401367188	893.3740234375	980.4684448242188	740.3952026367188	991.4623413085938	893.6272583007812	702.6323852539062	768.9815673828125	1109.924682617188	750.3567504882812	820.7437744140625	1030.070434570312	715.2451171875	851.663818359375	1076.592895507812	331.5951232910156	1411.818359375	705.7288208007812	263.9749450683594	1360.24462890625	685.3563232421875	200.9616241455078	1103.588623046875	640.2328491210938	294.2879333496094	1084.831787109375	644.5371704101562	176.7807922363281	880.9015502929688	748.4150390625	131.7890319824219	881.201904296875	675.8291625976562	171.5814514160156	1038.505737304688	653.0809936523438	146.1772766113281	695.6746215820312	755.0360107421875	131.9722137451172	769.491455078125	765.0357055664062	110.3014373779297	773.25244140625	697.7407836914062	436.1612548828125	1569.925170898438	652.4400024414062	525.112060546875	1642.632690429688	832.8148803710938	433.7459106445312	1640.3583984375	813.6522216796875	579.4766845703125	1563.768676757812	684.6181030273438	641.3977661132812	951.1280517578125	732.0489501953125	252.4146423339844	945.2116088867188	716.2962036132812	321.0872802734375	952.7160034179688	837.5556640625	572.3687744140625	960.7412109375	860.0657348632812	587.1917724609375	487.7376098632812	835.5037841796875	614.4480590820312	629.3243408203125	820.9663696289062	564.7103271484375	48.65470123291016	747.7320556640625	583.4362182617188	256.306884765625	793.815185546875	466.5851745605469	34.09312438964844	943.3163452148438	441.9106140136719	28.39497375488281	863.150146484375	553.3067016601562	40.29094696044922	869.8241577148438	514.0263671875	47.08501052856445	692.2255859375	265.7245788574219	489.5923767089844	872.8728637695312	256.3364868164062	744.0194091796875	815.9075317382812	317.9650268554688	98.97422027587891	646.6168212890625	283.2444763183594	366.1346130371094	847.1596069335938	366.9416809082031	64.29612731933594	832.9421997070312	407.9424133300781	70.89002227783203	778.3985595703125	295.4323120117188	57.92049407958984	742.0595092773438	367.2235107421875	116.2548217773438	597.1253051757812	
405	4.04	378.84375	981.8321533203125	624.682861328125	552.4063720703125	988.6456909179688	650.1361694335938	468.32275390625	1062.685546875	651.0367431640625	437.5458984375	1251.513305664062	896.6465454101562	478.6410217285156	1174.667236328125	636.3699340820312	501.4536743164062	1421.773559570312	672.8689575195312	459.1447448730469	1348.034545898438	831.0599975585938	427.1818542480469	1285.559204101562	615.8511962890625	604.549560546875	1376.204833984375	682.4689331054688	635.0999755859375	1389.549438476562	779.7996215820312	709.6830444335938	1271.1435546875	790.0817260742188	725.937255859375	1080.628662109375	848.29736328125	673.0750122070312	1043.550537109375	788.6727294921875	690.25537109375	926.3637084960938	1015.952819824219	749.5241088867188	896.0731201171875	987.7864990234375	739.9972534179688	992.968505859375	899.6307373046875	702.1259765625	773.8285522460938	1119.275512695312	749.7443237304688	824.2091674804688	1038.493896484375	714.7977905273438	855.939208984375	1084.612060546875	331.5989685058594	1411.85693359375	708.6597290039062	264.123046875	1360.288696289062	688.0374145507812	201.8097076416016	1103.73876953125	641.6470947265625	295.2275695800781	1085.286743164062	645.8651123046875	178.9034423828125	880.7192993164062	749.39013671875	133.3372192382812	881.0366821289062	677.2243041992188	172.7001800537109	1038.48486328125	654.4287719726562	149.3036346435547	695.38037109375	756.1521606445312	134.7313995361328	768.9187622070312	766.1804809570312	112.4757919311523	772.8180541992188	699.2053833007812	436.2057495117188	1570.543090820312	656.0006103515625	524.9548950195312	1642.640258789062	836.7225341796875	433.6080627441406	1640.428833007812	817.4290161132812	579.4744873046875	1564.179321289062	688.3592529296875	641.2296142578125	951.0697021484375	734.041259765625	252.7051391601562	945.6865844726562	719.5386352539062	321.3347778320312	953.1376342773438	840.8265380859375	572.7593994140625	960.817626953125	862.5051879882812	587.2785034179688	487.590576171875	836.5316772460938	614.522705078125	629.2036743164062	822.2501831054688	564.5811157226562	48.68775177001953	747.770263671875	583.3950805664062	256.3407287597656	794.23291015625	466.6268310546875	34.07251358032227	943.3714599609375	441.8519897460938	28.31802558898926	863.1107788085938	553.3115234375	40.30252075195312	869.8255615234375	513.768798828125	47.17787170410156	692.3404541015625	265.7399597167969	490.0689086914062	875.9344482421875	255.9676208496094	744.8276977539062	819.2440795898438	315.5989990234375	91.68595123291016	662.1296997070312	282.3717346191406	365.94482421875	852.9240112304688	361.9350280761719	64.82874298095703	850.2628784179688	403.7464294433594	68.44502258300781	796.0988159179688	291.4595642089844	55.21331024169922	758.9583129882812	365.5362243652344	106.2636184692383	612.423828125	
406	4.05	378.28515625	982.1041259765625	627.7180786132812	551.9890747070312	988.85009765625	652.501220703125	468.2481689453125	1063.111206054688	653.6263427734375	437.4858703613281	1251.612182617188	899.651611328125	478.8240356445312	1175.037841796875	639.34375	501.4076843261719	1422.125122070312	676.06640625	458.8205871582031	1347.995727539062	833.6829223632812	427.3896179199219	1285.883911132812	618.76171875	604.5637817382812	1376.669921875	685.7238159179688	634.9331665039062	1389.971557617188	783.0974731445312	709.5140380859375	1271.55810546875	793.76611328125	725.4530029296875	1081.4482421875	853.0297241210938	672.886474609375	1043.886108398438	793.5078125	689.5657958984375	929.480224609375	1022.349426269531	748.8655395507812	898.6531372070312	994.5614624023438	739.4964599609375	994.3994140625	905.1710205078125	701.3999633789062	778.474609375	1127.921508789062	748.9755859375	827.5344848632812	1046.310546875	714.1481323242188	860.0225830078125	1092.00830078125	331.4951477050781	1411.890869140625	711.603271484375	264.1502685546875	1360.295654296875	690.8060302734375	202.5384368896484	1103.816040039062	643.3365478515625	296.0610046386719	1085.696533203125	647.3558349609375	181.1637573242188	880.3446044921875	750.5213623046875	134.8761291503906	880.7955322265625	678.850341796875	173.7388458251953	1038.386108398438	656.0770874023438	152.5098571777344	694.908447265625	757.1710205078125	137.5817565917969	768.1112060546875	767.39599609375	114.6403350830078	772.3082275390625	700.781005859375	436.1558532714844	1571.138549804688	659.4264526367188	524.7461547851562	1642.668334960938	840.4599609375	433.4067993164062	1640.514038085938	821.0609130859375	579.3731689453125	1564.573608398438	691.935302734375	640.9993286132812	951.0145874023438	736.0128784179688	252.89794921875	946.189208984375	722.7263793945312	321.4845581054688	953.5869140625	844.0427856445312	573.0587768554688	960.9061889648438	864.8938598632812	587.300537109375	487.44970703125	837.5175170898438	614.5300903320312	629.0853881835938	823.4895629882812	564.4573974609375	48.71692657470703	747.814208984375	583.3379516601562	256.3882751464844	794.6417236328125	466.66650390625	34.05566787719727	943.4113159179688	441.7838439941406	28.22786331176758	863.0574951171875	553.315185546875	40.31350708007812	869.8248901367188	513.491943359375	47.26364898681641	692.4590454101562	265.8191223144531	490.4039916992188	878.3728637695312	255.5504608154297	745.5663452148438	822.3088989257812	313.1170959472656	84.78134918212891	677.093017578125	281.4547424316406	365.7300720214844	858.0255737304688	356.737548828125	65.38193511962891	866.6951293945312	399.3760375976562	66.13543701171875	813.0361938476562	287.2982177734375	52.80742645263672	775.0462646484375	363.7212829589844	96.71314239501953	627.3402099609375	
